<?xml version="1.0" encoding="utf-8"?>
<!-- Generator: Adobe Illustrator 24.3.0, SVG Export Plug-In . SVG Version: 6.00 Build 0)  -->
<svg version="1.1" id="Layer_1" xmlns="http://www.w3.org/2000/svg" xmlns:xlink="http://www.w3.org/1999/xlink" x="0px" y="0px"
	 viewBox="0 0 24.04 24.04" style="enable-background:new 0 0 24.04 24.04;" xml:space="preserve">
<style type="text/css">
	.st0{fill:#73A942;}
</style>
<g id="suitcase_2_">
	<path class="st0" d="M4.29,5.99H2.91c-1,0-1.82,0.82-1.82,1.82v10.55c0,1,0.82,1.82,1.82,1.82h1.38V5.99z"/>
	<path class="st0" d="M5.01,20.17h13.97V5.99h-3.57V5.15c0-0.7-0.57-1.27-1.27-1.27H9.91c-0.7,0-1.27,0.57-1.27,1.27v0.84H5.01
		V20.17z M13.66,15.38c-0.68,0.18-1.08-0.08-1.54-0.14c-0.03,0-0.07,0-0.1,0c-0.03,0-0.06,0-0.1,0c-0.46,0.05-0.86,0.31-1.54,0.14
		c-0.68-0.18-0.37-1.06-0.25-1.25c0.12-0.19,0.78-1.64,1.88-1.56c1.1-0.09,1.76,1.37,1.88,1.56C14.03,14.32,14.34,15.21,13.66,15.38
		z M10.3,10.6c0.04-0.41,0.28-0.67,0.49-0.72c0.51-0.11,0.75,0.43,0.86,0.73c0.11,0.29,0.24,1.12-0.54,1.29
		C10.4,12.05,10.27,10.98,10.3,10.6z M12.38,10.6c0.12-0.3,0.35-0.84,0.86-0.73c0.21,0.05,0.46,0.3,0.5,0.72
		c0.04,0.39-0.1,1.45-0.81,1.3C12.15,11.73,12.27,10.89,12.38,10.6z M15.23,11.6c0.17,0.13,0.28,0.47,0.13,0.86
		c-0.14,0.36-0.72,1.26-1.3,0.81c-0.63-0.49-0.15-1.18,0.08-1.4C14.37,11.66,14.82,11.28,15.23,11.6z M9.49,5.6
		c0-0.49,0.31-0.88,0.79-0.88h3.48c0.49,0,0.79,0.4,0.79,0.88v0.38H9.49V5.6z M8.81,11.6c0.41-0.32,0.86,0.06,1.1,0.27
		c0.23,0.21,0.71,0.9,0.08,1.39c-0.58,0.45-1.17-0.44-1.31-0.8C8.54,12.08,8.64,11.74,8.81,11.6z"/>
	<path class="st0" d="M21.13,5.99H19.7v14.18h1.43c1,0,1.82-0.82,1.82-1.82V7.8C22.95,6.8,22.13,5.99,21.13,5.99z"/>
</g>
</svg>
