<?xml version="1.0" encoding="utf-8"?>
<!-- Generator: Adobe Illustrator 24.3.0, SVG Export Plug-In . SVG Version: 6.00 Build 0)  -->
<svg version="1.1" id="Layer_1" xmlns="http://www.w3.org/2000/svg" xmlns:xlink="http://www.w3.org/1999/xlink" x="0px" y="0px"
	 viewBox="0 0 15.7 15.7" style="enable-background:new 0 0 15.7 15.7;" xml:space="preserve">
<style type="text/css">
	.st0{fill:#78B745;}
	.st1{fill:#F0A71F;}
	.st2{fill:#533222;}
	.st3{fill:#E1453D;}
	.st4{fill:#CCCCCC;}
</style>
<path class="st0" d="M5,1.5h5.7c0.2,0,0.4,0.2,0.4,0.4v11.8c0,0.2-0.2,0.4-0.4,0.4H5c-0.2,0-0.4-0.2-0.4-0.4V2
	C4.6,1.7,4.8,1.5,5,1.5z"/>
<path class="st1" d="M6.8,1.5h2.2c0.2,0,0.4,0.2,0.4,0.4l0,0c0,0.2-0.2,0.4-0.4,0.4H6.8C6.5,2.4,6.3,2.2,6.3,2l0,0
	C6.3,1.7,6.5,1.5,6.8,1.5z"/>
<g>
	<path class="st2" d="M7.6,12.7h0.4V13H7.6V12.7z"/>
	<path class="st3" d="M6.8,12.7h0.4V13H6.8V12.7z"/>
	<path class="st3" d="M8.5,12.7h0.4V13H8.5V12.7z"/>
</g>
<path class="st4" d="M7,8.7H6.1v0.5c0,0.4,0.2,0.9,0.6,1.1l0.1,0c0.2,0.1,0.4,0.2,0.6,0.2v0.7h0.9v-0.7c0.2,0,0.4-0.1,0.6-0.2l0.1,0
	c0.4-0.2,0.6-0.6,0.6-1.1V9.2c0-0.4-0.2-0.8-0.6-1L7.1,6.9c0,0-0.1-0.1-0.1-0.1C6.9,6.6,7,6.3,7.1,6.2c0.4-0.3,1-0.3,1.4,0
	c0.1,0.1,0.2,0.2,0.2,0.3V7h0.9V6.5c0-0.4-0.2-0.8-0.6-1C8.8,5.4,8.6,5.3,8.3,5.2V4.4H7.4v0.8C7.1,5.3,6.9,5.4,6.7,5.5
	C6.5,5.6,6.4,5.7,6.3,5.9C5.9,6.4,6.1,7.2,6.7,7.6l1.9,1.3C8.7,8.9,8.7,9,8.7,9.2v0.1c0,0.1-0.1,0.3-0.2,0.3l-0.1,0
	c-0.4,0.2-0.9,0.2-1.3,0l-0.1,0C7.1,9.5,7,9.4,7,9.2L7,8.7z"/>
</svg>
