<?xml version="1.0" encoding="utf-8"?>
<!-- Generator: Adobe Illustrator 24.3.0, SVG Export Plug-In . SVG Version: 6.00 Build 0)  -->
<svg version="1.1" id="Layer_1" xmlns="http://www.w3.org/2000/svg" xmlns:xlink="http://www.w3.org/1999/xlink" x="0px" y="0px"
	 viewBox="0 0 24 24" style="enable-background:new 0 0 24 24;" xml:space="preserve">
<style type="text/css">
	.st0{fill:#73A942;}
</style>
<g>
	<path class="st0" d="M1,17.1L3,12.7c0.4,0.3,0.9,0.5,1.4,0.5c1,0,1.9-0.6,2.3-1.6c0.1,0,0.2-0.1,0.3-0.1c0.4,0.4,1,0.7,1.7,0.7
		c0.9,0,1.6-0.5,2.1-1.1c0.3,0.2,0.7,0.2,1.1,0.2c0.1,0,0.1,0,0.2,0c0.4,0.5,1.1,0.8,1.8,0.8c0.3,0,0.5,0,0.8-0.1
		c0.4,0.7,1.2,1.2,2.1,1.2c0,0,0,0,0,0c0.6,0,1.2-0.2,1.6-0.6c0.4,0.3,0.9,0.4,1.4,0.4c0.6,0,1.1-0.2,1.5-0.5l2,4.7H1z M4.1,9.2
		l0.3-0.1l0.1-0.3c0.2-0.7,0.8-1.2,1.5-1.2c0.1,0,0.2,0,0.3,0l0.4,0.1l0.1-0.4c0.2-0.6,0.8-1.1,1.5-1.1c0.8,0,1.4,0.6,1.5,1.3l0.2,1
		l0.6-0.8c0.3-0.4,0.7-0.6,1.2-0.6c0.5,0,1,0.3,1.3,0.6l0.2,0.2l0.3-0.1c0,0,0.1,0,0.2,0l0.3,0L14,7.8c0.2-0.7,0.8-1.1,1.5-1.1
		c0.7,0,1.3,0.5,1.5,1.1l0.2,0.5l0.5-0.3c0.2-0.1,0.5-0.2,0.8-0.2c0.7,0,1.3,0.4,1.5,1L20,9L20.2,9c0.6,0.2,1,0.8,1,1.5
		c0,0.9-0.7,1.6-1.6,1.6c-0.4,0-0.8-0.2-1.1-0.5l-0.4-0.4l-0.3,0.4c-0.3,0.4-0.7,0.6-1.2,0.6c-0.7,0-1.3-0.5-1.5-1.1L15,10.7
		L14.5,11c-0.2,0.1-0.5,0.2-0.8,0.2c-0.5,0-1-0.3-1.3-0.6l-0.2-0.2L12,10.4c-0.1,0-0.2,0-0.3,0c-0.4,0-0.7-0.1-1-0.3l-0.5-0.4
		l-0.2,0.6c-0.2,0.6-0.8,1-1.5,1c-0.5,0-0.9-0.2-1.2-0.6l-0.3-0.3l-0.3,0.2c-0.2,0.1-0.4,0.2-0.6,0.2l-0.3,0l-0.1,0.3
		c-0.2,0.7-0.8,1.2-1.5,1.2c-0.9,0-1.6-0.7-1.6-1.6C2.8,10,3.4,9.3,4.1,9.2z"/>
</g>
</svg>
