<?xml version="1.0" encoding="utf-8"?>
<!-- Generator: Adobe Illustrator 24.3.0, SVG Export Plug-In . SVG Version: 6.00 Build 0)  -->
<svg version="1.1" id="Layer_1" xmlns="http://www.w3.org/2000/svg" xmlns:xlink="http://www.w3.org/1999/xlink" x="0px" y="0px"
	 viewBox="0 0 24.04 24.04" style="enable-background:new 0 0 24.04 24.04;" xml:space="preserve">
<style type="text/css">
	.st0{fill:#73A942;}
</style>
<g id="food_dish">
	<path class="st0" d="M4.96,9.57h14.13c-0.14-0.99-2.38-1.77-4.85-2.07c-0.26-1.13-1.26-1.97-2.46-1.97c-0.88,0-1.65,0.45-2.1,1.13
		C9.41,6.55,9.11,6.49,8.79,6.49c-1.08,0-1.95,0.73-1.95,1.64c0,0.03,0,0.05,0,0.08C5.89,8.58,5.01,8.92,4.96,9.57z"/>
	<path class="st0" d="M22.75,15.63h-0.52c-0.14-0.19-0.67-0.96-1.18-2.16c-0.62-1.47-0.99-3.12-0.99-3.12H12.1h-0.15H3.98
		c0,0-0.37,1.65-0.99,3.12c-0.5,1.2-1.03,1.96-1.18,2.16H1.29c-0.24,0-0.44,0.2-0.44,0.44v0c0,0.24,0.2,0.44,0.44,0.44h10.66h0.15
		h10.66c0.24,0,0.44-0.2,0.44-0.44v0C23.19,15.83,22.99,15.63,22.75,15.63z"/>
</g>
</svg>
