<?xml version="1.0" encoding="utf-8"?>
<!-- Generator: Adobe Illustrator 24.3.0, SVG Export Plug-In . SVG Version: 6.00 Build 0)  -->
<svg version="1.1" id="Layer_1" xmlns="http://www.w3.org/2000/svg" xmlns:xlink="http://www.w3.org/1999/xlink" x="0px" y="0px"
	 viewBox="0 0 24.04 24.04" style="enable-background:new 0 0 24.04 24.04;" xml:space="preserve">
<style type="text/css">
	.st0{fill:#73A942;}
</style>
<path id="shears" class="st0" d="M1.64,16.62c0.24,0.36,0.52,0.6,0.84,0.69c0.64,0.2,1.08-0.06,1.82-0.5
	c0.16-0.09,4.54-2.42,4.54-2.42l0.54,0.2l0.19,0.55c0,0-2.38,4.36-2.47,4.51c-0.45,0.74-0.71,1.17-0.52,1.81
	c0.09,0.32,0.32,0.61,0.68,0.85c1.25,0.84,2.78,0.63,3.58-0.77c0.81-1.4,0.21-2.85-1.04-3.69c-0.07-0.05-0.52-0.09-0.59-0.12
	l1.74-3.26c1.27-0.87,8.78-6.03,10.13-7.03c1.72-1.26,1.77-1.87,1.77-1.87l-9.78,5.34l5.46-9.72c0,0-0.61,0.04-1.89,1.74
	c-1.01,1.35-6.26,8.79-7.15,10.05l-3.28,1.71c-0.03-0.07-0.07-0.52-0.12-0.59c-0.83-1.26-2.26-1.88-3.68-1.09
	C1.04,13.83,0.82,15.35,1.64,16.62z M9.03,18.43c0.03,0,0.09-0.01,0.19,0.02c0.06,0.02,0.13,0.06,0.22,0.12
	c0.85,0.57,1.28,1.49,0.69,2.51c-0.58,1.02-1.6,1.14-2.45,0.58c-0.25-0.17-0.29-0.29-0.3-0.33c-0.09-0.32,0.01-0.64,0.34-1.19
	c0.09-0.15,0.19-0.31,0.28-0.47c0.09-0.17,0.18-0.33,0.27-0.48c0.2-0.36,0.16-0.29,0.35-0.51C8.74,18.54,8.92,18.45,9.03,18.43z
	 M2.92,13.78c1.02-0.57,1.95-0.13,2.5,0.72c0.06,0.09,0.09,0.16,0.11,0.22c0.04,0.11,0.03,0.17,0.02,0.19
	c-0.02,0.11-0.12,0.29-0.24,0.4C5.1,15.5,5.17,15.46,4.8,15.65c-0.16,0.08-0.32,0.17-0.49,0.26c-0.17,0.09-0.32,0.19-0.48,0.28
	c-0.55,0.33-0.88,0.43-1.2,0.33c-0.04-0.01-0.17-0.05-0.33-0.3C1.76,15.37,1.9,14.35,2.92,13.78z"/>
</svg>
