<?xml version="1.0" encoding="utf-8"?>
<!-- Generator: Adobe Illustrator 24.3.0, SVG Export Plug-In . SVG Version: 6.00 Build 0)  -->
<svg version="1.1" id="Layer_1" xmlns="http://www.w3.org/2000/svg" xmlns:xlink="http://www.w3.org/1999/xlink" x="0px" y="0px"
	 viewBox="0 0 24 24" style="enable-background:new 0 0 24 24;" xml:space="preserve">
<style type="text/css">
	.st0{fill:#73A942;}
</style>
<g id="clippers">
	<circle class="st0" cx="12.1" cy="18.1" r="1"/>
	<path class="st0" d="M15.8,0.5c-0.3,0-0.5,0.2-0.5,0.5v1.9c0,0.3-0.2,0.5-0.5,0.5c-0.3,0-0.5-0.2-0.5-0.5V1c0-0.3-0.2-0.5-0.5-0.5
		h0c-0.3,0-0.5,0.2-0.5,0.5v1.9c0,0.3-0.2,0.5-0.5,0.5c-0.3,0-0.5-0.2-0.5-0.5V1c0-0.3-0.2-0.5-0.5-0.5h0c-0.3,0-0.5,0.2-0.5,0.5
		v1.9c0,0.3-0.2,0.5-0.5,0.5c-0.3,0-0.5-0.2-0.5-0.5V1c0-0.3-0.2-0.5-0.5-0.5h0C9.8,0.5,9.6,0.7,9.6,1v1.9c0,0.3-0.2,0.5-0.5,0.5
		S8.7,3.1,8.7,2.8V1c0-0.3-0.2-0.5-0.5-0.5h0C7.9,0.5,7.7,0.7,7.7,1v3.3h8.5V1C16.2,0.7,16,0.5,15.8,0.5L15.8,0.5z"/>
	<path class="st0" d="M15,9.6c0.5-1.1,1.3-2,1.3-2.8c0-1,0-1.7,0-1.7H7.7c0,0,0,0.5,0,1.7c0,0.8,0.7,1.8,1.2,2.7
		c1,2-0.2,5.1-0.5,8.1c-0.2,2.3,0.4,4,0.4,4c0.4,0.9,1.3,1.8,2.1,1.8h1.1h0.1H13c0.9,0,1.8-0.9,2.1-1.8c0,0,0.6-1.8,0.4-4
		C15.3,14.7,14,11.7,15,9.6z M12,20c-1,0-1.9-0.9-1.9-1.9c0-1,0.9-1.9,1.9-1.9c1,0,1.9,0.9,1.9,1.9C13.9,19.2,13.1,20,12,20z"/>
</g>
</svg>
