<?xml version="1.0" encoding="utf-8"?>
<!-- Generator: Adobe Illustrator 24.3.0, SVG Export Plug-In . SVG Version: 6.00 Build 0)  -->
<svg version="1.1" id="Layer_1" xmlns="http://www.w3.org/2000/svg" xmlns:xlink="http://www.w3.org/1999/xlink" x="0px" y="0px"
	 viewBox="0 0 15.7 15.7" style="enable-background:new 0 0 15.7 15.7;" xml:space="preserve">
<style type="text/css">
	.st0{fill:#E1453D;}
	.st1{fill:#78B745;}
	.st2{fill:#CCCCCC;}
	.st3{fill:#533222;}
	.st4{fill:#F0A71F;}
</style>
<g>
	<path class="st0" d="M9.2,12.6l-1-0.4l-1.5,0.4l2.6,2V12.6z"/>
	<path class="st1" d="M14.3,12.6H6.1c-0.6,0-1-0.5-1-1V8.5c0-0.6,0.5-1,1-1h8.2c0.6,0,1,0.5,1,1v3.1C15.3,12.1,14.8,12.6,14.3,12.6z
		"/>
	<g>
		<circle class="st2" cx="12.2" cy="10.1" r="0.5"/>
		<circle class="st2" cx="10.2" cy="10.1" r="0.5"/>
		<circle class="st2" cx="8.1" cy="10.1" r="0.5"/>
	</g>
</g>
<g>
	<path class="st3" d="M4.6,6.9l-1-0.4L2,6.9l2.6,2V6.9z"/>
	<path class="st4" d="M9.7,6.9H1.5c-0.6,0-1-0.5-1-1V2.8c0-0.6,0.5-1,1-1h8.2c0.6,0,1,0.5,1,1v3.1C10.7,6.4,10.2,6.9,9.7,6.9z"/>
	<g>
		<circle class="st1" cx="7.6" cy="4.3" r="0.5"/>
		<circle class="st1" cx="5.6" cy="4.3" r="0.5"/>
		<circle class="st1" cx="3.5" cy="4.3" r="0.5"/>
	</g>
</g>
</svg>
