<?xml version="1.0" encoding="utf-8"?>
<!-- Generator: Adobe Illustrator 24.3.0, SVG Export Plug-In . SVG Version: 6.00 Build 0)  -->
<svg version="1.1" id="Layer_1" xmlns="http://www.w3.org/2000/svg" xmlns:xlink="http://www.w3.org/1999/xlink" x="0px" y="0px"
	 viewBox="0 0 114.8 95.2" style="enable-background:new 0 0 114.8 95.2;" xml:space="preserve">
<style type="text/css">
	.st0{fill:#CCCCCC;}
	.st1{fill:#EF9521;}
</style>
<g>
	<g>
		<path class="st0" d="M9.9,78.9L9.9,78.9v-0.3l0,0c0.4,0,0.9,0,1.3,0v0.3C10.8,78.9,10.3,78.9,9.9,78.9z M8.5,78.9
			c-0.5,0-0.9,0-1.4,0v-0.3c0.4,0,0.9,0,1.3,0L8.5,78.9z M12.6,78.9v-0.3c0.4,0,0.9,0,1.3-0.1v0.3C13.5,78.8,13,78.9,12.6,78.9z
			 M5.8,78.8c-0.5,0-0.9-0.1-1.3-0.1v-0.3c0.4,0,0.9,0.1,1.3,0.1V78.8z M15.3,78.7v-0.3c0.4,0,0.9-0.1,1.3-0.2v0.3
			C16.2,78.6,15.7,78.6,15.3,78.7z M18,78.3V78c0.4-0.1,0.9-0.2,1.3-0.2v0.3C18.9,78.2,18.4,78.3,18,78.3z M20.6,77.8l-0.1-0.3
			c0.4-0.1,0.9-0.2,1.3-0.3l0.1,0.3C21.5,77.6,21.1,77.7,20.6,77.8z M23.3,77.1l-0.1-0.3c0.4-0.1,0.9-0.3,1.3-0.4l0.1,0.3
			C24.2,76.8,23.7,77,23.3,77.1z M25.9,76.2l-0.1-0.3c0.4-0.2,0.9-0.3,1.3-0.5l0.1,0.3C26.7,75.9,26.3,76.1,25.9,76.2z M28.4,75.1
			l-0.1-0.3c0.4-0.2,0.8-0.4,1.2-0.6l0.1,0.3C29.2,74.7,28.8,74.9,28.4,75.1z M30.8,73.8l-0.1-0.3c0.4-0.2,0.8-0.5,1.2-0.8L32,73
			C31.6,73.2,31.2,73.5,30.8,73.8z M33.1,72.1L33,71.9c0.4-0.3,0.7-0.6,1.1-0.9l0.2,0.2C33.9,71.5,33.5,71.8,33.1,72.1z M35.3,70.3
			L35.1,70c0.3-0.3,0.7-0.7,1-1l0.2,0.2C36,69.6,35.6,69.9,35.3,70.3z M37.3,68.1l-0.2-0.2c0.3-0.4,0.6-0.8,0.9-1.2l0.2,0.2
			C37.9,67.3,37.6,67.7,37.3,68.1z M39,65.7l-0.2-0.2c0.3-0.4,0.5-0.8,0.8-1.3l0.2,0.2C39.5,64.8,39.3,65.3,39,65.7z M40.5,63.1
			l-0.2-0.2c0.2-0.4,0.3-0.7,0.5-1.1l0.1-0.3l0.2,0.1L41,61.9C40.8,62.3,40.6,62.7,40.5,63.1z M41.7,60.3l-0.2-0.1
			c0.2-0.5,0.4-0.9,0.6-1.4l0.2,0.1C42.1,59.3,41.9,59.8,41.7,60.3z M42.9,57.5l-0.2-0.1l0.6-1.4l0.2,0.1L42.9,57.5z M44,54.7
			l-0.2-0.1c0.2-0.5,0.4-0.9,0.6-1.4l0.2,0.1C44.4,53.7,44.2,54.2,44,54.7z M45.2,51.9L45,51.8c0.2-0.5,0.4-0.9,0.6-1.4l0.2,0.1
			C45.6,51,45.4,51.4,45.2,51.9z M46.4,49.1L46.2,49c0.2-0.5,0.4-0.9,0.6-1.4l0.2,0.1C46.8,48.2,46.6,48.6,46.4,49.1z M47.7,46.4
			l-0.2-0.1c0.2-0.5,0.4-0.9,0.7-1.4l0.2,0.2C48.1,45.4,47.9,45.9,47.7,46.4z M49,43.7l-0.2-0.2c0.2-0.5,0.5-0.9,0.7-1.3l0.2,0.2
			C49.5,42.8,49.2,43.2,49,43.7z M50.4,41l-0.2-0.2c0.3-0.4,0.5-0.9,0.8-1.3l0.2,0.2C50.9,40.1,50.7,40.6,50.4,41z M51.9,38.5
			l-0.2-0.2c0.3-0.4,0.5-0.8,0.8-1.2l0.2,0.2C52.5,37.6,52.2,38,51.9,38.5z M53.6,36l-0.2-0.2c0.3-0.4,0.6-0.8,0.9-1.2l0.2,0.2
			C54.2,35.3,53.9,35.6,53.6,36z M55.5,33.8l-0.2-0.2c0.3-0.4,0.7-0.7,1-1.1l0.2,0.2C56.1,33.1,55.8,33.4,55.5,33.8z M57.5,31.8
			l-0.2-0.2c0.4-0.3,0.7-0.6,1.1-0.9l0.2,0.3C58.2,31.1,57.8,31.4,57.5,31.8z M59.7,30l-0.1-0.3c0.4-0.3,0.8-0.5,1.2-0.8l0.1,0.3
			C60.4,29.5,60.1,29.7,59.7,30z M62,28.5l-0.1-0.3c0.4-0.2,0.8-0.4,1.2-0.6l0.1,0.3C62.8,28.1,62.4,28.3,62,28.5z M64.5,27.4
			l-0.1-0.3c0.4-0.2,0.9-0.3,1.3-0.5l0.1,0.3C65.4,27,64.9,27.2,64.5,27.4z M67.1,26.5L67,26.2c0.4-0.1,0.9-0.2,1.3-0.3l0.1,0.3
			C68,26.3,67.5,26.4,67.1,26.5z M69.7,25.9v-0.3c0.4-0.1,0.9-0.1,1.3-0.2v0.3C70.6,25.8,70.2,25.8,69.7,25.9z M84,25.8
			c-0.3,0-0.6,0-0.8,0v-0.3c0.5,0,0.9,0,1.3,0v0.3C84.3,25.8,84.2,25.8,84,25.8z M85.8,25.7v-0.3c0.5,0,0.9-0.1,1.3-0.1v0.3
			C86.8,25.7,86.3,25.7,85.8,25.7z M81.8,25.7c-0.3,0-0.6,0-0.9-0.1c-0.2,0-0.3,0-0.5,0v-0.3c0.2,0,0.3,0,0.5,0
			c0.3,0,0.6,0.1,0.9,0.1V25.7z M72.4,25.5v-0.3c0.4,0,0.9-0.1,1.3-0.1v0.3C73.3,25.5,72.8,25.5,72.4,25.5z M79.1,25.5
			c-0.5,0-0.9-0.1-1.3-0.1v-0.3c0.4,0,0.9,0,1.4,0.1L79.1,25.5z M75.1,25.4v-0.3c0.4,0,0.9,0,1.4,0v0.3C76,25.4,75.5,25.4,75.1,25.4
			z M88.5,25.4v-0.3c0.4-0.1,0.9-0.2,1.3-0.3l0.1,0.3C89.4,25.2,89,25.3,88.5,25.4z M91.2,24.6l-0.1-0.3c0.4-0.2,0.9-0.3,1.3-0.5
			l0.1,0.3C92,24.3,91.6,24.5,91.2,24.6z M93.7,23.5l-0.1-0.3c0.4-0.2,0.8-0.5,1.2-0.8l0.1,0.3C94.5,23,94.1,23.2,93.7,23.5z
			 M96,21.8l-0.2-0.2c0.4-0.3,0.7-0.6,1-1l0.2,0.2C96.7,21.2,96.4,21.5,96,21.8z M98,19.7l-0.2-0.2c0.3-0.4,0.6-0.8,0.8-1.2l0.2,0.2
			C98.6,18.9,98.3,19.3,98,19.7z M99.6,17.2L99.4,17c0.2-0.4,0.4-0.9,0.6-1.4l0.2,0.1C100,16.3,99.8,16.7,99.6,17.2z M100.8,14.4
			l-0.3-0.1c0.2-0.5,0.3-1,0.5-1.5l0.3,0.1C101.1,13.4,101,13.9,100.8,14.4z M101.6,11.4l-0.3-0.1c0.1-0.5,0.2-1,0.3-1.5l0.3,0.1
			C101.8,10.4,101.7,10.9,101.6,11.4z M102.1,8.3h-0.3c0.1-0.5,0.1-1,0.1-1.5h0.3C102.2,7.3,102.2,7.8,102.1,8.3z M102.3,5.2H102
			c0-0.4,0-0.8,0-1.2c0-0.1,0-0.3,0-0.4h0.3c0,0.1,0,0.3,0,0.4C102.4,4.4,102.4,4.8,102.3,5.2z M102,2.1c0-0.5-0.1-1-0.1-1.5h0.3
			c0,0.5,0.1,1,0.1,1.6L102,2.1z"/>
	</g>
	<circle id="Ellipse_8" class="st1" cx="2.3" cy="78.1" r="1.3"/>
</g>
</svg>
