<?xml version="1.0" encoding="utf-8"?>
<!-- Generator: Adobe Illustrator 24.3.0, SVG Export Plug-In . SVG Version: 6.00 Build 0)  -->
<svg version="1.1" id="Layer_1" xmlns="http://www.w3.org/2000/svg" xmlns:xlink="http://www.w3.org/1999/xlink" x="0px" y="0px"
	 viewBox="0 0 127.5 95.2" style="enable-background:new 0 0 127.5 95.2;" xml:space="preserve">
<style type="text/css">
	.st0{fill:#EF9521;}
	.st1{fill:#CCCCCC;}
</style>
<g>
	<circle id="Ellipse_8" class="st0" cx="113.7" cy="85.5" r="1.3"/>
	<g>
		<path class="st1" d="M104.8,86.8v-0.3c0.4,0,0.9,0,1.3,0l0,0v0.3l0,0C105.7,86.8,105.3,86.8,104.8,86.8z M107.5,86.4
			c0.5,0,0.9,0,1.3-0.1v0.3c-0.4,0-0.9,0-1.4,0.1L107.5,86.4z M102.1,86.6v-0.3c0.5,0,0.9,0.1,1.3,0.1v0.3
			C103,86.7,102.6,86.7,102.1,86.6z M110.2,86.3c0.5,0,0.9-0.1,1.3-0.1v0.3c-0.4,0-0.9,0.1-1.3,0.1V86.3z M99.4,86.3V86
			c0.5,0.1,0.9,0.1,1.3,0.2v0.3C100.3,86.4,99.9,86.4,99.4,86.3z M96.7,85.8v-0.3c0.4,0.1,0.9,0.2,1.3,0.3v0.3
			C97.6,86,97.2,85.9,96.7,85.8z M94.1,85.2l0.1-0.3c0.4,0.1,0.9,0.2,1.3,0.4l-0.1,0.3C95,85.4,94.5,85.3,94.1,85.2z M91.5,84.3
			l0.1-0.3c0.4,0.2,0.9,0.3,1.3,0.5l-0.1,0.3C92.3,84.6,91.9,84.5,91.5,84.3z M88.9,83.2l0.1-0.3c0.4,0.2,0.8,0.4,1.3,0.6l-0.1,0.3
			C89.7,83.6,89.3,83.4,88.9,83.2z M86.4,81.8l0.1-0.3c0.4,0.2,0.8,0.5,1.2,0.7l0,0.3C87.2,82.3,86.8,82.1,86.4,81.8z M84,80.2
			l0.1-0.3c0.4,0.3,0.8,0.6,1.2,0.8L85.2,81C84.8,80.8,84.4,80.5,84,80.2z M81.8,78.3L82,78c0.4,0.3,0.7,0.7,1.1,1l-0.2,0.3
			C82.5,78.9,82.1,78.6,81.8,78.3z M79.7,76l0.2-0.2c0.3,0.4,0.7,0.8,1,1.1l-0.2,0.3C80.4,76.8,80.1,76.4,79.7,76z M77.9,73.5
			l0.2-0.2c0.3,0.4,0.6,0.9,0.9,1.3l-0.2,0.2C78.5,74.4,78.2,74,77.9,73.5z M76.3,70.7l0.2-0.2c0.2,0.5,0.5,1,0.8,1.4l-0.2,0.2
			C76.8,71.7,76.5,71.2,76.3,70.7z M75.1,68L75,67.7l0.2-0.2l0.1,0.3c0.2,0.4,0.3,0.8,0.5,1.2l-0.2,0.2C75.4,68.8,75.2,68.4,75.1,68
			z M73.8,64.6l0.2-0.2c0.2,0.5,0.4,1,0.6,1.5l-0.2,0.2C74.2,65.7,74,65.1,73.8,64.6z M72.6,61.5l0.2-0.1l0.6,1.5l-0.2,0.2
			L72.6,61.5z M71.4,58.5l0.2-0.2c0.2,0.5,0.4,1,0.6,1.5L72,60C71.8,59.5,71.6,59,71.4,58.5z M70.2,55.4l0.2-0.2
			c0.2,0.5,0.4,1,0.6,1.5l-0.2,0.2C70.6,56.4,70.4,55.9,70.2,55.4z M69,52.3l0.2-0.2c0.2,0.5,0.4,1,0.6,1.5l-0.2,0.2
			C69.4,53.3,69.2,52.8,69,52.3z M67.7,49.3l0.2-0.2c0.2,0.5,0.4,1,0.7,1.5l-0.2,0.2C68.1,50.3,67.9,49.8,67.7,49.3z M66.3,46.4
			l0.2-0.2c0.2,0.5,0.5,1,0.7,1.5L67,47.9C66.8,47.3,66.6,46.8,66.3,46.4z M64.9,43.5l0.2-0.2c0.2,0.5,0.5,0.9,0.8,1.4l-0.2,0.2
			C65.4,44.4,65.1,43.9,64.9,43.5z M63.3,40.7l0.2-0.2c0.3,0.4,0.6,0.9,0.8,1.4l-0.2,0.2C63.8,41.6,63.5,41.2,63.3,40.7z M61.5,38.2
			l0.2-0.2c0.3,0.4,0.6,0.8,0.9,1.3l-0.2,0.2C62.1,39,61.8,38.6,61.5,38.2z M59.6,35.8l0.2-0.3c0.3,0.4,0.7,0.8,1,1.2l-0.2,0.2
			C60.3,36.5,59.9,36.2,59.6,35.8z M57.5,33.7l0.2-0.3c0.4,0.3,0.7,0.7,1.1,1l-0.2,0.3C58.2,34.4,57.8,34,57.5,33.7z M55.2,31.9
			l0.1-0.3c0.4,0.3,0.8,0.6,1.2,0.9l-0.1,0.3C56,32.5,55.6,32.2,55.2,31.9z M52.8,30.4l0.1-0.3c0.4,0.2,0.8,0.4,1.2,0.7L54,31.1
			C53.6,30.9,53.2,30.7,52.8,30.4z M50.3,29.3l0.1-0.3c0.4,0.2,0.9,0.3,1.3,0.5l-0.1,0.3C51.1,29.7,50.7,29.5,50.3,29.3z M47.6,28.5
			l0.1-0.3c0.4,0.1,0.9,0.2,1.3,0.4l-0.1,0.3C48.5,28.8,48.1,28.6,47.6,28.5z M45,28v-0.3c0.5,0.1,0.9,0.1,1.3,0.2v0.3
			C45.9,28.2,45.4,28.1,45,28z M31.5,28.1v-0.3c0.4,0,0.9,0,1.3,0v0.3c-0.3,0-0.6,0-0.8,0C31.9,28.1,31.7,28.1,31.5,28.1z
			 M28.8,27.9v-0.3c0.4,0.1,0.9,0.1,1.3,0.1V28C29.7,28,29.3,28,28.8,27.9z M34.2,27.7c0.3,0,0.6-0.1,0.9-0.1c0.2,0,0.3,0,0.5,0v0.3
			c-0.2,0-0.3,0-0.5,0c-0.3,0-0.6,0.1-0.9,0.1V27.7z M42.3,27.7v-0.3c0.5,0,0.9,0.1,1.3,0.1v0.3C43.2,27.8,42.8,27.8,42.3,27.7z
			 M36.9,27.4c0.5,0,0.9-0.1,1.4-0.1v0.3c-0.4,0-0.9,0-1.3,0.1L36.9,27.4z M39.6,27.7v-0.3c0.5,0,0.9,0,1.4,0v0.3
			C40.5,27.7,40.1,27.7,39.6,27.7z M26.2,27.3l0.1-0.3c0.4,0.1,0.9,0.2,1.3,0.3v0.3C27.1,27.6,26.6,27.4,26.2,27.3z M23.6,26.3
			l0.1-0.3c0.4,0.2,0.8,0.4,1.3,0.6l-0.1,0.3C24.4,26.7,24,26.5,23.6,26.3z M21.2,24.7l0.1-0.3c0.4,0.3,0.8,0.6,1.2,0.9l-0.1,0.3
			C21.9,25.3,21.5,25,21.2,24.7z M19,22.6l0.2-0.3c0.3,0.4,0.7,0.7,1,1.1L20,23.7C19.7,23.4,19.3,23,19,22.6z M17.2,20l0.2-0.2
			c0.3,0.5,0.5,0.9,0.8,1.3L18,21.3C17.8,21,17.5,20.5,17.2,20z M15.8,17.1l0.2-0.2c0.2,0.5,0.4,1,0.6,1.5l-0.2,0.2
			C16.2,18.1,16,17.6,15.8,17.1z M14.8,13.9l0.3-0.1c0.1,0.5,0.3,1.1,0.5,1.6l-0.3,0.1C15.1,15,14.9,14.4,14.8,13.9z M14.1,10.5
			l0.3-0.1c0.1,0.6,0.2,1.2,0.3,1.7l-0.3,0.1C14.3,11.7,14.2,11.1,14.1,10.5z M13.8,7.1h0.3c0,0.6,0.1,1.1,0.1,1.7h-0.3
			C13.9,8.2,13.8,7.7,13.8,7.1z M13.7,4.1c0-0.1,0-0.3,0-0.4H14c0,0.1,0,0.3,0,0.4c0,0.4,0,0.8,0,1.3l-0.3,0
			C13.7,4.9,13.7,4.5,13.7,4.1z M13.7,1.9c0-0.6,0.1-1.2,0.1-1.7h0.3c0,0.6-0.1,1.1-0.1,1.7H13.7z"/>
	</g>
</g>
</svg>
