<?xml version="1.0" encoding="utf-8"?>
<!-- Generator: Adobe Illustrator 24.3.0, SVG Export Plug-In . SVG Version: 6.00 Build 0)  -->
<svg version="1.1" id="Layer_1" xmlns="http://www.w3.org/2000/svg" xmlns:xlink="http://www.w3.org/1999/xlink" x="0px" y="0px"
	 viewBox="0 0 127.5 95.2" style="enable-background:new 0 0 127.5 95.2;" xml:space="preserve">
<style type="text/css">
	.st0{fill:#74A931;}
	.st1{fill:#E1453D;}
	.st2{fill:#F0940C;}
</style>
<path class="st0" d="M46.2,23c-7.8-9-28.5,2.3-28.5,2.3c-15.7,9.5-16.8,24-16.8,24c-2,14.8,15.7,24.5,15.7,24.5
	C67.5,62,46.2,23,46.2,23z"/>
<path class="st1" d="M71.7,48.4c0,0-20.6-18.3-48.2,1.5c0,0-11.8,14.6-6.4,27.7h0c1.8,5.3,5.8,12.6,14.6,14.3c0,0,6.3,1.4,13.4-2.2
	c6.2-3.2,11.4-10.2,14.5-13.8C59.7,75.9,81.8,60.3,71.7,48.4z"/>
<path class="st2" d="M62.8,60.8c0,0-49.3,19-25.3,25.8l0,0c8.1,3.9,12.3,3.4,12.3,3.4c9.6,0.4,13.7-4.8,15.3-8
	c0.7-1.4,0.9-2.3,0.9-2.3S80.3,62.4,62.8,60.8z"/>
</svg>
