<?xml version="1.0" encoding="utf-8"?>
<!-- Generator: Adobe Illustrator 24.3.0, SVG Export Plug-In . SVG Version: 6.00 Build 0)  -->
<svg version="1.1" id="Layer_1" xmlns="http://www.w3.org/2000/svg" xmlns:xlink="http://www.w3.org/1999/xlink" x="0px" y="0px"
	 viewBox="0 0 127.5 95.2" style="enable-background:new 0 0 127.5 95.2;" xml:space="preserve">
<style type="text/css">
	.st0{fill:#74A931;}
	.st1{fill:#E1453D;}
	.st2{fill:#F0940C;}
</style>
<path class="st0" d="M23.3,12.4c-1.7-0.3-3.4-0.1-5.2,0.5c-2.8,1.1-5.2,3.2-7,5.6C0,32.9-2,61.6,21.1,64.8c4.7,0.7,9,2,12.5-2.1
	c4.3-4.9,7.4-12.9,8.5-19.3c1.3-7.5-0.1-15.2-5-21.2C33.8,18.2,28.8,13.3,23.3,12.4z"/>
<path class="st1" d="M61.2,23.4c-4.1-1.9-10.6-1-14.7-0.1c-18.7,4.1-32,23.4-21.7,41.4c4.1,7.1,11.5,11.8,19.9,9.8
	c0,0,5.7-1.2,10.2-6.9c2-2.5,3.3-5.5,4.3-8.6c0.4-1.1,1.5-7.9,2.5-8.3C61.7,50.7,74,29.4,61.2,23.4z"/>
<path class="st2" d="M55.8,43.3c0.8,0.9,1.9,1.5,2.9,2.1c5.1,2.9,10.2,6,15.4,8.6c2.4,1.2,10.2,5.2,12.7,2.6c1-0.4,1.7-1,2-2.1
	c0.2-0.9,0.1-1.9-0.1-2.8c-0.8-4.9-2-9.9-4.7-14c-3.1-4.8-8.2-8.1-14-7.1c-4.1,0.7-8.6,0.1-12.5,1.9c-3.8,1.8-4.7,6.8-2.3,10.2
	C55.5,42.9,55.7,43.1,55.8,43.3z"/>
</svg>
