<?xml version="1.0" encoding="utf-8"?>
<!-- Generator: Adobe Illustrator 24.3.0, SVG Export Plug-In . SVG Version: 6.00 Build 0)  -->
<svg version="1.1" id="Layer_1" xmlns="http://www.w3.org/2000/svg" xmlns:xlink="http://www.w3.org/1999/xlink" x="0px" y="0px"
	 viewBox="0 0 24.04 24.04" style="enable-background:new 0 0 24.04 24.04;" xml:space="preserve">
<style type="text/css">
	.st0{fill:#73A942;}
</style>
<g>
	<path class="st0" d="M22.61,9.04L22.6,9.04c-2.08,1.41-6.14,2.28-10.58,2.28c-1.78,0-3.49-0.14-5.05-0.4
		c-0.93,0.13-1.66,0.75-1.74,1.72c-0.07,0.91,0.4,1.65,1.17,1.98c1.28,0.25,2.68,0.41,4.14,0.48c-0.04,0.14-0.07,0.28-0.07,0.44
		c0,0.39,0.15,0.74,0.39,1.01c-0.87,0.46-1.47,1.37-1.47,2.43c0,1.52,1.24,2.76,2.76,2.76c1.52,0,2.76-1.24,2.76-2.76
		c0-1.13-0.68-2.09-1.64-2.52c0.19-0.26,0.31-0.57,0.31-0.92c0-0.15-0.03-0.3-0.07-0.44c2.54-0.11,4.9-0.51,6.74-1.16
		c2.07-0.73,3.26-1.69,3.26-2.65V8.26C23.27,8.53,22.98,8.79,22.61,9.04z M12.63,15.54c0,0.34-0.27,0.61-0.61,0.61
		c-0.34,0-0.61-0.28-0.61-0.61c0-0.16,0.06-0.3,0.17-0.41c0.15,0,0.3,0.01,0.45,0.01c0.15,0,0.3-0.01,0.45-0.01
		C12.57,15.24,12.63,15.38,12.63,15.54z"/>
	<path class="st0" d="M5.34,10.59c-1.6-0.38-2.94-0.91-3.88-1.54c-0.03-0.01-0.06-0.04-0.1-0.07c-0.33-0.23-0.6-0.47-0.82-0.72v3.03
		c0,0.96,1.19,1.92,3.26,2.65c0.22,0.08,0.45,0.15,0.69,0.22c-0.22-0.44-0.33-0.96-0.3-1.54C4.25,11.77,4.67,11.02,5.34,10.59z"/>
	<path class="st0" d="M2.27,8.22c2.12-1.35,5.41-2.1,9.75-2.1c4.34,0,7.8,0.75,9.92,2.1c0.91-0.61,1.56-1.33,1.56-2.06
		c0-0.96-1.19-1.92-3.26-2.65c-2.19-0.77-5.11-1.2-8.22-1.2C8.92,2.31,6,2.73,3.8,3.5C1.73,4.23,0.54,5.2,0.54,6.15
		C0.54,7.25,1.52,7.74,2.27,8.22z"/>
</g>
</svg>
