<?xml version="1.0" encoding="utf-8"?>
<!-- Generator: Adobe Illustrator 24.3.0, SVG Export Plug-In . SVG Version: 6.00 Build 0)  -->
<svg version="1.1" id="Layer_1" xmlns="http://www.w3.org/2000/svg" xmlns:xlink="http://www.w3.org/1999/xlink" x="0px" y="0px"
	 viewBox="0 0 15.7 15.7" style="enable-background:new 0 0 15.7 15.7;" xml:space="preserve">
<style type="text/css">
	.st0{fill:#78B745;}
	.st1{fill:#EBEBEB;}
	.st2{fill:#573231;}
	.st3{fill:#664040;}
	.st4{fill:#CBCBCB;}
	.st5{fill:#E1453D;}
	.st6{fill:#F6BB92;}
	.st7{fill:#BD9070;}
	.st8{fill:#F0A71F;}
</style>
<g>
	<path class="st0" d="M10.8,5.6l-0.3-0.4l1.9-1.6L12.7,4L10.8,5.6z"/>
	<path class="st1" d="M11.4,10.7H6.6V4.5H10l1.4,1.4V10.7z"/>
	<g>
		<path class="st0" d="M12.1,7.6h0.5v0.5h-0.5V7.6z"/>
		<path class="st0" d="M13,7.6h0.5v0.5H13V7.6z"/>
		<path class="st0" d="M14,7.6h0.5v0.5H14V7.6z"/>
		<path class="st0" d="M9,14.5c-3.7,0-6.6-3-6.6-6.6c0-1.8,0.7-3.4,1.9-4.7c2.2-2.2,5.8-2.6,8.4-0.8l-0.3,0.4c-1-0.7-2.2-1-3.4-1
			c-3.4,0-6.1,2.8-6.1,6.1S5.6,14,9,14c3.3,0,6-2.6,6.1-5.9h-0.2V7.6h0.4c0.1,0,0.2,0.1,0.2,0.2C15.6,11.5,12.7,14.5,9,14.5L9,14.5z
			"/>
	</g>
	<path class="st2" d="M7.6,7.8h2.9v1.9H7.6V7.8z"/>
	<path class="st2" d="M9.7,8.3c-0.1,0-0.2-0.1-0.2-0.2V7.4c0-0.1-0.1-0.2-0.2-0.2H8.8c-0.1,0-0.2,0.1-0.2,0.2v0.7
		c0,0.1-0.1,0.2-0.2,0.2S8.1,8.2,8.1,8.1V7.4c0-0.4,0.3-0.7,0.7-0.7h0.5C9.6,6.7,10,7,10,7.4v0.7C10,8.2,9.9,8.3,9.7,8.3z"/>
	<path class="st3" d="M7.6,7.8l0.3,0.4C8.1,8.6,8.6,8.8,9,8.8s0.9-0.2,1.1-0.6l0.3-0.4L7.6,7.8z"/>
	<path class="st4" d="M11.4,5.9H10V4.5L11.4,5.9z"/>
	<g>
		<circle class="st5" cx="2.9" cy="7.6" r="2.6"/>
		<g>
			<path class="st6" d="M2.9,9.5c-0.7,0-1.4-0.6-1.4-1.4V7.3l1.4-0.7l1.4,0.7v0.9C4.2,8.9,3.6,9.5,2.9,9.5z"/>
			<path class="st6" d="M2.1,8.2H1.6C1.4,8.2,1.2,8,1.2,7.7c0-0.2,0.2-0.5,0.5-0.5h0.5V8.2z"/>
			<path class="st6" d="M3.6,8.2h0.5c0.2,0,0.5-0.2,0.5-0.5c0-0.2-0.2-0.5-0.5-0.5H3.6V8.2z"/>
			<circle class="st7" cx="2.2" cy="8.2" r="0.2"/>
			<circle class="st7" cx="3.5" cy="8.2" r="0.2"/>
			<path class="st2" d="M4.2,7.5L4.2,7.5c-0.6,0-1.1-0.3-1.4-0.7C2.6,7.2,2.1,7.5,1.6,7.5H1.5V7c0-0.7,0.6-1.4,1.4-1.4
				S4.2,6.3,4.2,7V7.5z"/>
		</g>
	</g>
	<g>
		<circle class="st8" cx="13.5" cy="3.1" r="1.9"/>
		<g>
			<path class="st6" d="M13.5,4.5c-0.6,0-1-0.4-1-1V2.9l1-0.5l1,0.5v0.7C14.5,4.1,14.1,4.5,13.5,4.5z"/>
			<path class="st6" d="M12.9,3.5h-0.3c-0.2,0-0.3-0.1-0.3-0.3c0-0.2,0.1-0.3,0.3-0.3h0.3V3.5z"/>
			<path class="st6" d="M14.1,3.5h0.3c0.2,0,0.3-0.1,0.3-0.3c0-0.2-0.1-0.3-0.3-0.3h-0.3V3.5z"/>
			<circle class="st7" cx="13" cy="3.5" r="0.2"/>
			<circle class="st7" cx="14" cy="3.5" r="0.2"/>
			<path class="st2" d="M14.5,3L14.5,3c-0.4,0-0.8-0.2-1-0.5C13.3,2.8,13,3,12.6,3h-0.1V2.7c0-0.6,0.4-1,1-1c0.6,0,1,0.4,1,1V3z"/>
		</g>
	</g>
</g>
</svg>
