<?xml version="1.0" encoding="utf-8"?>
<!-- Generator: Adobe Illustrator 24.3.0, SVG Export Plug-In . SVG Version: 6.00 Build 0)  -->
<svg version="1.1" id="Layer_1" xmlns="http://www.w3.org/2000/svg" xmlns:xlink="http://www.w3.org/1999/xlink" x="0px" y="0px"
	 viewBox="0 0 15.7 15.7" style="enable-background:new 0 0 15.7 15.7;" xml:space="preserve">
<style type="text/css">
	.st0{fill:#C3C3C3;}
	.st1{fill:#F0A71F;}
	.st2{fill:#E1453D;}
	.st3{fill:#78B745;}
	.st4{fill:#F6BB92;}
	.st5{fill:#BD9070;}
	.st6{fill:#533222;}
</style>
<g>
	<path class="st0" d="M6.1,8.5l1.1,0.8L6,10.9l-1.1-0.8L6.1,8.5z"/>
	<path class="st1" d="M3.2,15.4l-1.6-1.2L3.9,11l1-0.9L6,10.9l-0.5,1.3L3.2,15.4z"/>
	<path class="st2" d="M5.5,12.1L3.9,11l1-0.9L6,10.9L5.5,12.1z"/>
	<path class="st3" d="M12.1,1.3c-2.3-1.6-5.4-1.1-7,1.2S4,7.8,6.2,9.4s5.4,1.1,7-1.2S14.3,2.9,12.1,1.3z M7,8.3
		C5.4,7.1,5,4.8,6.2,3.2s3.5-2,5.1-0.8s2,3.5,0.8,5.1S8.6,9.5,7,8.3z"/>
	<g>
		<path class="st4" d="M9.3,8.2c-1.1,0-2.1-0.9-2.1-2.1V4.7l2.1-1l2.1,1v1.4C11.4,7.2,10.4,8.2,9.3,8.2z"/>
		<path class="st4" d="M8.2,6.1H7.6c-0.4,0-0.7-0.3-0.7-0.7c0-0.4,0.3-0.7,0.7-0.7h0.7V6.1z"/>
		<path class="st4" d="M10.3,6.1H11c0.4,0,0.7-0.3,0.7-0.7c0-0.4-0.3-0.7-0.7-0.7h-0.7V6.1z"/>
		<circle class="st5" cx="8.3" cy="6.1" r="0.3"/>
		<circle class="st5" cx="10.3" cy="6.1" r="0.3"/>
	</g>
	<path class="st6" d="M11.4,5.1h-0.1c-0.8,0-1.5-0.4-1.9-1c-0.4,0.6-1.2,1-1.9,1H7.2V4.4c0-1.1,0.9-2.1,2.1-2.1s2.1,0.9,2.1,2.1V5.1
		z"/>
</g>
</svg>
