<?xml version="1.0" encoding="utf-8"?>
<!-- Generator: Adobe Illustrator 24.3.0, SVG Export Plug-In . SVG Version: 6.00 Build 0)  -->
<svg version="1.1" id="Layer_1" xmlns="http://www.w3.org/2000/svg" xmlns:xlink="http://www.w3.org/1999/xlink" x="0px" y="0px"
	 viewBox="0 0 24.04 24.04" style="enable-background:new 0 0 24.04 24.04;" xml:space="preserve">
<style type="text/css">
	.st0{fill:#73A942;}
</style>
<path id="veterinarian_2_" class="st0" d="M17.1,14.13c0.12,0.49,0.12,0.99,0.1,1.29l0.06,0l0,0l0,0c1.68,0.22,3.14,1.67,3.14,3.36
	v1.48c0,0.41,0.02,0.87-0.22,1.2c-0.15,0.21-0.69,0.56-0.87,0.56c-0.28,0-0.51-0.23-0.51-0.51v-0.46c0-0.28,0.23-0.51,0.51-0.51
	c0.06,0,0.12,0.01,0.18,0.03c0.01-0.1,0.02-0.2,0.02-0.29v-1.48c0-1.28-1.29-2.5-2.65-2.5c-1.36,0-2.65,1.22-2.65,2.5v1.48
	c0,0.09,0.01,0.19,0.02,0.28c0.05-0.02,0.1-0.02,0.15-0.02c0.28,0,0.51,0.23,0.51,0.51v0.46c0,0.28-0.23,0.51-0.51,0.51
	c-0.18,0-0.34-0.09-0.43-0.24c0,0-0.33-0.21-0.41-0.32c-0.24-0.33-0.22-0.79-0.22-1.2v-1.48c0-1.67,1.33-3.1,2.98-3.35
	c0.04-0.43,0.01-1.23-0.33-1.53c-0.02-0.02-0.04-0.03-0.05-0.05c-0.17-0.01-0.43-0.02-0.6-0.02h-0.79c1.47-1.03,2.92-3.21,2.92-5.13
	V7.08c0-3.11-2.55-5.66-5.66-5.66h0c-3.11,0-5.66,2.55-5.66,5.66V8.7c0,1.92,1.45,4.1,2.92,5.13c-0.24,0-1.06,0.02-1.3,0.05
	c0.01,0.06,0,0.12-0.03,0.19c-0.35,0.81-0.47,2.35-0.5,3.67c0.55,0.22,0.95,0.76,0.95,1.39c0,0.83-0.69,1.31-1.31,1.31
	c-0.59,0-1.4-0.48-1.4-1.31c0-0.61,0.36-1.13,0.88-1.37c0.02-1.14,0.11-2.54,0.4-3.59c-3.34,1.1-6.16,4.65-6.16,8.44h22.88
	C23.46,18.85,20.79,14.94,17.1,14.13z"/>
</svg>
