<?xml version="1.0" encoding="utf-8"?>
<!-- Generator: Adobe Illustrator 24.3.0, SVG Export Plug-In . SVG Version: 6.00 Build 0)  -->
<svg version="1.1" id="Layer_1" xmlns="http://www.w3.org/2000/svg" xmlns:xlink="http://www.w3.org/1999/xlink" x="0px" y="0px"
	 viewBox="0 0 24.04 24.04" style="enable-background:new 0 0 24.04 24.04;" xml:space="preserve">
<style type="text/css">
	.st0{fill:#73A942;}
</style>
<path id="pet_locator" class="st0" d="M16.91,2.77c-1.35-1.35-2.98-2.03-4.89-2.03c-1.91,0-3.54,0.68-4.89,2.03
	C5.78,4.13,5.1,5.76,5.1,7.67c0,2.29,1.2,4.18,1.49,4.81l5.43,9.55l5.4-9.55c0.3-0.63,1.52-2.52,1.52-4.81
	C18.94,5.76,18.27,4.13,16.91,2.77z M12.32,4.84c0,0,0.6-1.43,1.35-1.24c0.75,0.19,0.79,1.5,0.79,1.5s-0.15,1.86-1.54,1.49
	C12.92,6.59,11.78,6.25,12.32,4.84z M10.2,3.66c0.7-0.21,1.33,0.77,1.49,1.17c0.15,0.39,0.23,1.77-0.62,1.82
	c0,0-1.11,0.43-1.45-1.28C9.62,5.37,9.5,3.87,10.2,3.66z M7.9,7.53c-0.17-0.51,0.3-1.17,0.3-1.17C9,5.97,9.82,6.97,9.86,7.14
	c0.04,0.17,0.62,1.43-0.34,1.75C8.56,9.21,8.07,8.04,7.9,7.53z M14.35,11.67c-0.94,0.24-1.49-0.11-2.12-0.19
	c-0.64-0.08-0.92,0.41-1.92,0.19c-1-0.23-1.02-0.85-0.45-2.22c0.56-1.37,2.2-1.65,2.2-1.65c1.54-0.15,2.46,1.88,2.63,2.14
	C14.86,10.2,15.29,11.43,14.35,11.67z M16.12,7.74c0,0-0.41,1.49-1.6,0.98c0,0-1.26-0.41-0.23-1.94c0,0,0.81-0.92,1.45-0.68
	C16.38,6.35,16.12,7.74,16.12,7.74z"/>
</svg>
