<?xml version="1.0" encoding="utf-8"?>
<!-- Generator: Adobe Illustrator 24.3.0, SVG Export Plug-In . SVG Version: 6.00 Build 0)  -->
<svg version="1.1" id="Layer_1" xmlns="http://www.w3.org/2000/svg" xmlns:xlink="http://www.w3.org/1999/xlink" x="0px" y="0px"
	 viewBox="0 0 15.7 15.7" style="enable-background:new 0 0 15.7 15.7;" xml:space="preserve">
<style type="text/css">
	.st0{fill:#EBEBEB;}
	.st1{fill:#78B745;}
	.st2{fill:#F0A71F;}
	.st3{fill:#E1453D;}
	.st4{fill:#573231;}
</style>
<path class="st0" d="M11.3,3.5l-7.6,7.6C1.8,8.8,2.1,5.4,4.4,3.5c0.8-0.7,1.8-1.1,2.9-1.2c0.2,0,0.4,0,0.5,0s0.4,0,0.5,0
	C9.5,2.4,10.5,2.8,11.3,3.5L11.3,3.5z"/>
<path class="st1" d="M11.5,3.3C10.6,2.6,9.6,2.2,8.4,2C8.1,2,7.7,2,7.3,2C4.2,2.4,1.9,5.1,2.2,8.3c0.1,1.1,0.6,2.2,1.3,3.1
	c0,0.1,0.1,0.1,0.2,0.1c0,0,0,0,0,0c0.1,0,0.1,0,0.2-0.1l7.6-7.6C11.6,3.6,11.6,3.4,11.5,3.3C11.5,3.3,11.5,3.3,11.5,3.3L11.5,3.3z
	 M7,7.4H5.4c0-0.7,0.1-1.3,0.3-1.9C6.4,5.6,7,5.6,7.6,5.6v1.2L7,7.4z M6.5,8l-1,1C5.5,8.6,5.5,8.3,5.4,8L6.5,8z M7.5,2.6
	c0.1,0,0.1,0,0.2,0v2.6c-0.6,0-1.1,0-1.7-0.1C6.3,4.1,6.8,3.3,7.5,2.6L7.5,2.6z M8.1,5.6c0.2,0,0.5,0,0.7,0L8.1,6.4V5.6z M9.4,5
	C9,5.1,8.6,5.1,8.1,5.1V2.5c0.1,0,0.1,0,0.2,0C8.9,3.2,9.4,4,9.7,4.8L9.4,5z M6.7,2.7c-0.5,0.7-1,1.4-1.3,2.3
	C4.9,4.8,4.3,4.7,3.8,4.6C4.5,3.6,5.5,3,6.7,2.7z M3.5,5C4,5.2,4.6,5.3,5.3,5.4C5.1,6.1,5,6.8,4.9,7.4H2.7C2.8,6.6,3,5.8,3.5,5
	L3.5,5z M3.7,10.8C3.1,10,2.8,9,2.7,8h2.2c0,0.5,0.1,1,0.2,1.4L3.7,10.8z M10.1,4.4c-0.3-0.6-0.6-1.2-1-1.7c0.7,0.2,1.3,0.5,1.9,0.9
	L10.1,4.4z"/>
<path class="st2" d="M13.3,7.7c0-1.3-0.4-2.5-1.2-3.5l-7.6,7.6c0.8,0.7,1.8,1.1,2.9,1.2c0.2,0,0.4,0,0.5,0c0.2,0,0.4,0,0.5,0
	c0.1,0,0.2,0,0.2,0v1.6l2.3-2.5C12.4,11.1,13.3,9.5,13.3,7.7L13.3,7.7z"/>
<g>
	<circle class="st3" cx="7.9" cy="10.3" r="0.5"/>
	<circle class="st3" cx="9.4" cy="10.3" r="0.5"/>
	<circle class="st3" cx="11" cy="10.3" r="0.5"/>
</g>
<path class="st4" d="M14.1,3.3h0.2c0.1,0,0.3-0.1,0.3-0.3s-0.1-0.3-0.3-0.3h-0.8c-0.1,0-0.3,0.1-0.3,0.3v0.8c0,0.1,0.1,0.3,0.3,0.3
	s0.3-0.1,0.3-0.3V3.7c1.9,2.7,1.7,6.3-0.7,8.7c-0.1,0.1-0.1,0.3,0,0.4c0.1,0.1,0.3,0.1,0.4,0C16,10.2,16.3,6.2,14.1,3.3L14.1,3.3z"
	/>
<path class="st4" d="M2.3,2.6C-0.2,5.1-0.6,9,1.4,11.9l-0.2,0c-0.1,0-0.3,0.1-0.3,0.2c0,0.1,0.1,0.3,0.2,0.3L2,12.5
	c0.1,0,0.3-0.1,0.3-0.2c0,0,0,0,0,0l0.1-0.8c0-0.1-0.1-0.3-0.2-0.3c-0.1,0-0.3,0.1-0.3,0.2l0,0.2C0,8.9,0.3,5.2,2.6,2.9
	c0.1-0.1,0.1-0.3,0-0.4C2.5,2.5,2.4,2.5,2.3,2.6C2.3,2.6,2.3,2.6,2.3,2.6L2.3,2.6z"/>
</svg>
